<svg id="Слой_1" data-name="Слой 1" xmlns="http://www.w3.org/2000/svg" viewBox="0 0 10 5.24"><defs><style>.cls-1{fill:#fff;}</style></defs><title>menu</title><line class="cls-1" x1="0.6" y1="4.61" x2="9.32" y2="4.61"/><path class="cls-1" d="M.56,6.07H9.29a.63.63,0,0,0,0-1.25H.56a.63.63,0,0,0,0,1.25Z" transform="translate(0.04 -0.83)"/><line class="cls-1" x1="0.68" y1="2.52" x2="9.4" y2="2.52"/><path class="cls-1" d="M.64,4H9.36a.63.63,0,0,0,0-1.25H.64A.63.63,0,0,0,.64,4Z" transform="translate(0.04 -0.83)"/><line class="cls-1" x1="0.68" y1="0.63" x2="9.4" y2="0.63"/><path class="cls-1" d="M.64,2.08H9.36a.63.63,0,0,0,0-1.25H.64a.63.63,0,0,0,0,1.25Z" transform="translate(0.04 -0.83)"/></svg>